<svg xmlns="http://www.w3.org/2000/svg" viewBox="0 0 512 512">
<defs>
  <linearGradient id="bg" x1="0" y1="0" x2="1" y2="1"><stop stop-color="#0B3557"/><stop offset="1" stop-color="#1478A5"/></linearGradient>
  <linearGradient id="scrub" x1="0" y1="0" x2="1" y2="1"><stop stop-color="#31C7B0"/><stop offset="1" stop-color="#1787A4"/></linearGradient>
</defs>
<rect width="512" height="512" rx="112" fill="url(#bg)"/>
<circle cx="118" cy="106" r="68" fill="#ffffff" opacity=".08"/>
<circle cx="402" cy="420" r="92" fill="#ffffff" opacity=".06"/>
<!-- caregiver head -->
<circle cx="256" cy="164" r="70" fill="#F4C9A6"/>
<path d="M189 151c8-54 41-82 70-82 41 0 74 28 78 82-25-17-48-26-77-26-25 0-49 8-71 26z" fill="#24384A"/>
<path d="M197 145c14-31 37-47 61-47 28 0 51 15 64 43-24-10-42-14-64-14-23 0-41 5-61 18z" fill="#31495C"/>
<!-- body / scrubs -->
<path d="M136 430c9-91 40-146 93-166 9-3 18-5 27-5s18 2 27 5c53 20 84 75 93 166z" fill="url(#scrub)"/>
<path d="M221 260l35 48 35-48-18-8h-34z" fill="#EAF7F8"/>
<path d="M256 307v123" stroke="#0E607D" stroke-width="5" opacity=".5"/>
<path d="M177 331c19 9 38 13 79 13s60-4 79-13" fill="none" stroke="#ffffff" stroke-width="5" opacity=".35"/>
<!-- heart / care symbol -->
<path d="M365 246c-15-19-48-9-48 18 0 30 48 57 48 57s48-27 48-57c0-27-33-37-48-18z" fill="#F4B6C8"/>
<path d="M365 253v22M354 264h22" stroke="#0B3557" stroke-width="6" stroke-linecap="round"/>
<!-- nameplate -->
<rect x="157" y="373" width="112" height="34" rx="17" fill="#ffffff" opacity=".93"/>
<text x="213" y="396" text-anchor="middle" font-family="Arial, sans-serif" font-size="18" font-weight="700" fill="#0B3557">CARE</text>
</svg>
